<?xml version="1.0" standalone="no"?>
<!DOCTYPE svg PUBLIC "-//W3C//DTD SVG 20010904//EN"
 "http://www.w3.org/TR/2001/REC-SVG-20010904/DTD/svg10.dtd">
<svg version="1.0" xmlns="http://www.w3.org/2000/svg"
 width="500.000000pt" height="500.000000pt" viewBox="0 0 500.000000 500.000000"
 preserveAspectRatio="xMidYMid meet">

<g transform="translate(0.000000,500.000000) scale(0.100000,-0.100000)"
fill="#000000" stroke="none">
<path d="M3150 3529 c-171 -19 -311 -85 -430 -201 -127 -122 -245 -336 -375
-677 -190 -501 -300 -658 -505 -722 -90 -28 -253 -31 -330 -5 -157 53 -266
178 -320 366 -31 107 -38 342 -16 504 17 118 80 352 129 479 l26 67 -32 13
c-18 8 -89 33 -160 58 -147 51 -131 57 -178 -71 -84 -233 -129 -492 -129 -753
0 -389 97 -669 297 -858 162 -152 353 -219 593 -206 238 13 424 97 576 259
124 133 208 288 333 618 137 359 239 552 341 644 54 48 150 94 226 106 316 52
551 -111 634 -440 45 -177 45 -480 -1 -718 -23 -122 -78 -321 -120 -434 l-28
-78 179 0 179 0 15 28 c20 39 62 183 80 277 68 342 73 723 16 985 -96 432
-350 700 -719 755 -105 16 -166 17 -281 4z"/>
</g>
</svg>
